<?xml version="1.0" encoding="UTF-8" standalone="no"?>
<svg
   width="58"
   height="58"
   viewBox="0 0 58 58"
   fill="none"
   version="1.1"
   id="svg5"
   sodipodi:docname="TrueDamage_normal_1699003419-TrueDamage-gray.svg"
   inkscape:version="1.3 (0e150ed6c4, 2023-07-21)"
   xmlns:inkscape="http://www.inkscape.org/namespaces/inkscape"
   xmlns:sodipodi="http://sodipodi.sourceforge.net/DTD/sodipodi-0.dtd"
   xmlns="http://www.w3.org/2000/svg"
   xmlns:svg="http://www.w3.org/2000/svg">
  <defs
     id="defs5" />
  <sodipodi:namedview
     id="namedview5"
     pagecolor="#ffffff"
     bordercolor="#000000"
     borderopacity="0.25"
     inkscape:showpageshadow="2"
     inkscape:pageopacity="0.0"
     inkscape:pagecheckerboard="0"
     inkscape:deskcolor="#d1d1d1"
     inkscape:zoom="4.6815346"
     inkscape:cx="21.787728"
     inkscape:cy="30.438737"
     inkscape:window-width="1366"
     inkscape:window-height="705"
     inkscape:window-x="-8"
     inkscape:window-y="-8"
     inkscape:window-maximized="1"
     inkscape:current-layer="svg5" />
  <path
     id="path5"
     style="fill:#bd9e59;fill-opacity:1;stroke-width:1.4867"
     d="m 29.743433,35.690797 c 3.695227,0 6.690797,-2.99557 6.690797,-6.690797 0,-3.69523 -2.99557,-6.690791 -6.690797,-6.690791 -3.69523,0 -6.690791,2.995561 -6.690791,6.690791 0,3.695227 2.995561,6.690797 6.690791,6.690797 z M 0.75,20.6261 9.247152,29.010109 0.75,37.394272 V 52.046034 L 20.078978,33.690549 15.199419,29.010109 20.078978,24.329675 0.75,5.953934 Z m 20.619533,37.367333 8.384009,-8.506406 8.384163,8.506406 H 52.789467 L 34.433982,38.664452 29.753542,43.528189 25.073108,38.664452 6.697367,57.993433 Z M 57.25,37.394272 49.406482,29.010109 57.25,20.6261 V 5.953934 l -17.842115,18.375741 4.484782,4.680434 -4.484782,4.68044 L 57.25,52.046034 Z M 38.137705,0.006567 29.753542,8.503719 21.369533,0.006567 H 6.697367 l 18.375741,19.328978 4.680434,-4.879559 4.68044,4.879559 18.355485,-19.328978 z"
     inkscape:transform-center-x="0.83072917" />
</svg>
