<?xml version="1.0" encoding="UTF-8" standalone="no"?>
<!DOCTYPE svg PUBLIC "-//W3C//DTD SVG 1.1//EN" "http://www.w3.org/Graphics/SVG/1.1/DTD/svg11.dtd">
<svg width="100%" height="100%" viewBox="0 0 48 48" version="1.1" xmlns="http://www.w3.org/2000/svg" xmlns:xlink="http://www.w3.org/1999/xlink" xml:space="preserve" xmlns:serif="http://www.serif.com/" style="fill-rule:evenodd;clip-rule:evenodd;stroke-linecap:round;stroke-linejoin:round;stroke-miterlimit:1.5;">
    <g id="Camada2">
        <g transform="matrix(1.000528,0,0,1.000528,-0.341394,0.316065)">
            <path d="M24.177,-0.474C17.488,-0.474 11.429,2.241 7.042,6.628C2.654,11.015 -0.061,17.074 -0.061,23.763C-0.061,30.451 2.654,36.511 7.042,40.898C11.429,45.285 18.465,48 24.177,48C29.888,48 37.272,44.937 41.311,40.898C45.351,36.858 48.414,29.474 48.414,23.763C48.414,18.051 45.351,10.667 41.311,6.628C37.272,2.588 30.865,-0.474 24.177,-0.474Z" style="fill:rgb(200,170,110);stroke:rgb(200,170,110);stroke-opacity:0;stroke-width:1px;"/>
        </g>
        <g transform="matrix(0.866437,0,0,0.866437,3.229094,3.173833)">
            <path d="M24.177,-0.474C17.488,-0.474 11.429,2.241 7.042,6.628C2.654,11.015 -0.061,17.074 -0.061,23.763C-0.061,30.451 2.654,36.511 7.042,40.898C11.429,45.285 18.465,48 24.177,48C29.888,48 37.272,44.937 41.311,40.898C45.351,36.858 48.414,29.474 48.414,23.763C48.414,18.051 45.351,10.667 41.311,6.628C37.272,2.588 30.865,-0.474 24.177,-0.474Z" style="fill:rgb(30,35,40);"/>
        </g>
    </g>
    <g id="Camada1" transform="matrix(1,0,0,1,-0.32862,0.32862)">
        <g transform="matrix(0.635542,0,0,0.651993,8.811328,8.269621)">
            <path d="M25.282,25.569L13.096,37.755L22.732,37.755C23.944,37.755 24.926,38.737 24.926,39.948C24.926,41.159 23.944,42.141 22.732,42.141C22.732,42.141 7.237,42.257 6.735,42.008C5.895,41.701 5.295,40.894 5.295,39.948L5.295,24.704C5.295,23.492 6.277,22.511 7.488,22.511C8.7,22.511 9.681,23.492 9.681,24.704L9.681,34.966L22.245,22.403L25.282,25.569Z" style="fill:rgb(71,71,71);stroke:rgb(71,71,71);stroke-width:3.42px;"/>
        </g>
        <g transform="matrix(0.635542,0,0,0.651993,8.811328,8.269621)">
            <path d="M22.245,22.403L34.904,9.744L25.621,9.744C24.41,9.744 23.428,8.762 23.428,7.551C23.428,6.34 24.41,5.358 25.621,5.358L40.865,5.358C42.076,5.358 43.058,6.34 43.058,7.551L43.058,22.795C43.058,24.006 42.076,24.988 40.865,24.988C39.654,24.988 38.672,24.006 38.672,22.795L38.672,12.179L25.282,25.569C25.282,25.569 22.746,25.869 22.239,25.341C21.743,24.824 22.245,22.403 22.245,22.403Z" style="fill:rgb(200,170,110);stroke:rgb(200,170,110);stroke-width:3.42px;"/>
        </g>
    </g>
</svg>
